# xmcd CD database file generated by OrangeCD 5.2
#
# Track frame offsets:
#	150
#	19072
#	61561
#	87747
#	118847
#	146739
#
# Disc length: 2491 seconds
#
# Revision: 0
# Processed by: cddbd v1.5.1PL0 Copyright (c) Steve Scherf et al.
# Submitted via: OrangeCD 5.2
#
DISCID=4f09b906
DTITLE=Albert Collins and The Icebreakers - Crystal Palace Sports Arena, London
DYEAR=1992
DGENRE=Blues
TTITLE0=Travelling South
TTITLE1=If Trouble Was Money
TTITLE2=Put The Shoe On The Other Foot
TTITLE3=Same Old Thing
TTITLE4=The Things That I Used To Do
TTITLE5=Head Rag
EXTD=
EXTT0=
EXTT1=
EXTT2=
EXTT3=
EXTT4=
EXTT5=
PLAYORDER=
